<svg width="512" height="512" viewBox="0 0 512 512" fill="none" xmlns="http://www.w3.org/2000/svg">
<path d="M173.608 387.128C165.672 387.128 158.12 384.824 150.952 380.216C143.784 375.608 138.408 368.696 134.824 359.48C133.544 356.152 132.776 352.568 132.52 348.728C132.008 345.144 131.752 341.56 131.752 337.976C131.752 334.392 132.392 332.6 133.672 332.6C134.952 332.6 135.592 333.624 135.592 335.672C135.592 347.704 138.664 356.792 144.808 362.936C150.696 369.08 158.248 372.152 167.464 372.152C176.424 372.152 185.128 369.592 193.576 364.472C201.768 359.352 209.448 352.824 216.616 344.888C228.648 331.832 239.528 316.984 249.256 300.344C259.24 283.448 268.2 266.04 276.136 248.12C278.184 243.768 281.128 236.856 284.968 227.384C288.808 217.656 293.032 207.16 297.64 195.896C302.248 184.376 306.728 174.008 311.08 164.792C314.92 156.088 318.12 149.176 320.68 144.056C323.496 138.936 327.208 134.584 331.816 131C336.424 127.416 343.336 123.832 352.552 120.248C348.456 120.504 344.616 120.888 341.032 121.4C337.448 121.656 334.632 121.784 332.584 121.784C322.856 122.04 313.128 122.68 303.4 123.704C293.672 124.728 284.968 126.648 277.288 129.464C269.608 132.024 264.104 135.736 260.776 140.6C258.472 143.928 257.32 147.768 257.32 152.12C257.32 156.472 258.472 160.696 260.776 164.792C263.08 168.888 266.024 171.832 269.608 173.624C270.12 174.136 270.376 174.52 270.376 174.776C270.376 175.288 269.736 175.928 268.456 176.696C267.432 177.208 266.28 177.336 265 177.08C262.952 175.8 260.392 173.752 257.32 170.936C254.248 167.864 251.432 164.664 248.872 161.336C246.568 158.008 245.032 155.192 244.264 152.888C243.24 149.816 242.728 146.744 242.728 143.672C242.728 137.528 244.904 132.536 249.256 128.696C253.864 124.856 259.752 121.912 266.92 119.864C274.088 117.816 281.768 116.408 289.96 115.64C298.408 114.616 306.472 114.104 314.152 114.104C322.088 113.848 328.872 113.72 334.504 113.72H375.976C376.488 113.72 376.744 113.848 376.744 114.104C376.744 114.872 375.848 116.024 374.056 117.56C372.52 118.84 371.496 119.48 370.984 119.48C363.816 119.736 357.416 122.424 351.784 127.544C346.408 132.664 341.672 138.552 337.576 145.208C333.736 151.608 330.536 157.496 327.976 162.872C326.44 165.944 324.008 170.936 320.68 177.848C317.608 184.504 314.152 192.184 310.312 200.888C306.728 209.336 303.016 217.784 299.176 226.232C295.592 234.68 292.392 241.976 289.576 248.12C282.92 263.48 276.648 277.816 270.76 291.128C265.128 304.184 258.856 316.472 251.944 327.992C245.032 339.512 236.456 350.776 226.216 361.784C219.816 368.696 211.752 374.584 202.024 379.448C192.04 384.568 182.568 387.128 173.608 387.128Z" fill="black"/>
</svg>
